<svg xmlns="http://www.w3.org/2000/svg" viewBox="0 0 67.27 67.27"><defs><style>.cls-1{fill:#dd851b;}.cls-2{fill:#1d7d87;}.cls-3{fill:#dbdbdb;}</style></defs><g id="Layer_2" data-name="Layer 2"><g id="Layer_1-2" data-name="Layer 1"><path class="cls-1" d="M44.42,34.76,38.3,42.11l-4.73-13-4.73,13-6.12-7.35-1,6h-3.5a16.94,16.94,0,0,0,30.81,0H45.41Z"/><path class="cls-2" d="M33.33,16.67A17.3,17.3,0,0,0,17.82,27.76a15.82,15.82,0,0,0-.6,10.09H19.3l1.62-9.71,6.93,8.32,5.72-15.72,5.71,15.72,6.93-8.32,1.62,9.71h2.22a16.76,16.76,0,0,0,.55-4.21A17,17,0,0,0,33.33,16.67Z"/><path class="cls-3" d="M63.93,28.9,59,27.16a5,5,0,0,1-2.85-6.89l2.23-4.71a5,5,0,0,0-6.69-6.69L47,11.1a5,5,0,0,1-6.89-2.85L38.37,3.34a5,5,0,0,0-9.47,0L27.16,8.25a5,5,0,0,1-6.89,2.85L15.56,8.87a5,5,0,0,0-6.69,6.69l2.23,4.71a5,5,0,0,1-2.85,6.89L3.34,28.9a5,5,0,0,0,0,9.47l4.91,1.74A5,5,0,0,1,11.1,47L8.87,51.71a5,5,0,0,0,6.69,6.69l4.71-2.23A5,5,0,0,1,27.16,59l1.74,4.91a5,5,0,0,0,9.47,0L40.11,59A5,5,0,0,1,47,56.17l4.71,2.23a5,5,0,0,0,6.69-6.69L56.17,47A5,5,0,0,1,59,40.11l4.91-1.74A5,5,0,0,0,63.93,28.9ZM33.64,53.46A19.83,19.83,0,1,1,53.46,33.64,19.84,19.84,0,0,1,33.64,53.46Z"/></g></g></svg>