<?xml version="1.0" encoding="UTF-8" standalone="no"?>
<svg
   xmlns:dc="http://purl.org/dc/elements/1.1/"
   xmlns:cc="http://creativecommons.org/ns#"
   xmlns:rdf="http://www.w3.org/1999/02/22-rdf-syntax-ns#"
   xmlns:svg="http://www.w3.org/2000/svg"
   xmlns="http://www.w3.org/2000/svg"
   xmlns:sodipodi="http://sodipodi.sourceforge.net/DTD/sodipodi-0.dtd"
   xmlns:inkscape="http://www.inkscape.org/namespaces/inkscape"
   version="1.1"
   viewBox="0 0 96 96"
   id="svg54"
   sodipodi:docname="sbLogViewer96.svg"
   width="96"
   height="96"
   inkscape:version="0.92.0 r15299">
  <metadata
     id="metadata60">
    <rdf:RDF>
      <cc:Work
         rdf:about="">
        <dc:format>image/svg+xml</dc:format>
        <dc:type
           rdf:resource="http://purl.org/dc/dcmitype/StillImage" />
        <dc:title></dc:title>
      </cc:Work>
    </rdf:RDF>
  </metadata>
  <defs
     id="defs58" />
  <sodipodi:namedview
     pagecolor="#ffffff"
     bordercolor="#666666"
     borderopacity="1"
     objecttolerance="10"
     gridtolerance="10"
     guidetolerance="10"
     inkscape:pageopacity="0"
     inkscape:pageshadow="2"
     inkscape:window-width="1581"
     inkscape:window-height="990"
     id="namedview56"
     showgrid="false"
     inkscape:zoom="16.25"
     inkscape:cx="25.094552"
     inkscape:cy="23.132689"
     inkscape:window-x="0"
     inkscape:window-y="0"
     inkscape:window-maximized="0"
     inkscape:current-layer="svg54" />
  <linearGradient
     id="c"
     x1="386.57001"
     x2="386.57001"
     y1="527.13"
     y2="504.91"
     gradientTransform="matrix(0.71429,0,0,0.70714,-276.55,-352.47)"
     gradientUnits="userSpaceOnUse">
    <stop
       stop-color="#1d1e1e"
       offset="0"
       id="stop2" />
    <stop
       stop-color="#44484c"
       offset="1"
       id="stop4" />
  </linearGradient>
  <linearGradient
     id="d"
     x1="-2"
     x2="-2"
     y1="30"
     y2="2"
     gradientTransform="matrix(0.71429,0,0,0.71429,-0.42857,-0.42857)"
     gradientUnits="userSpaceOnUse">
    <stop
       stop-color="#c6cdd1"
       offset="0"
       id="stop7" />
    <stop
       stop-color="#e0e5e7"
       offset="1"
       id="stop9" />
  </linearGradient>
  <rect
     x="10.055677"
     y="10.055676"
     width="75.888641"
     height="75.888649"
     id="rect12"
     style="fill:#232629;stroke:#eff0f1;stroke-width:8.11135483" />
  <g
     transform="matrix(3.3599489,0,0,3.3599491,10.970844,11.397979)"
     id="g52">
    <g
       id="g42"
       style="stroke-width:0.71429002">
      <path
         d="M 1,1 V 21 H 21 V 1 Z"
         id="path14"
         style="fill:url(#d)"
         inkscape:connector-curvature="0" />
      <path
         d="m 1,4.5714 h 20 v 14.286 H 1 Z"
         id="path16"
         style="fill:url(#c)"
         inkscape:connector-curvature="0" />
      <path
         d="M 1,1 H 21 V 3.8571 H 1 Z"
         id="path18"
         inkscape:connector-curvature="0"
         style="fill:#566069" />
      <path
         d="M 1,3.8571 H 21 V 4.57139 H 1 Z"
         id="path20"
         inkscape:connector-curvature="0"
         style="fill:#3daee9" />
      <rect
         x="18.857"
         y="1.7143"
         width="1.4286"
         height="1.4286"
         rx="0.71429002"
         id="rect22"
         style="fill:#eff0f1" />
      <circle
         cx="4.9285998"
         cy="14.929"
         r="2.5"
         id="circle24"
         style="fill:#eff0f1" />
      <circle
         cx="4.9285998"
         cy="14.929"
         r="1.7857"
         id="circle26"
         style="fill:#3daefd" />
      <path
         d="m 8.8571,7.4286 h 1.4286 V 8.14289 H 8.8571 Z m 2.1429,0 h 2.1429 V 8.14289 H 11 Z"
         id="path28"
         inkscape:connector-curvature="0"
         style="fill:#da4453" />
      <path
         d="m 15.286,7.4286 h 2.1429 V 8.14289 H 15.286 Z m 0,1.4286 h 4.2857 V 9.57149 H 15.286 Z m 2.8571,-1.4286 h 1.4286 v 0.71429 h -1.4286 z"
         id="path30"
         inkscape:connector-curvature="0"
         style="fill:#95a5a6" />
      <path
         d="m 8.8571,8.8571 h 2.8571 V 9.57139 H 8.8571 Z m 3.5714,0 h 1.4286 v 0.71429 h -1.4286 z"
         id="path32"
         inkscape:connector-curvature="0"
         style="fill:#bdc3c7" />
      <path
         d="m 8.8571,13.857 h 1.4286 v 0.71429 H 8.8571 Z m 2.1429,0 h 2.1429 v 0.71429 H 11 Z"
         id="path34"
         inkscape:connector-curvature="0"
         style="fill:#3daefd" />
      <path
         d="m 15.286,13.857 h 2.8571 v 0.71429 H 15.286 Z"
         id="path36"
         inkscape:connector-curvature="0"
         style="fill:#95a5a6" />
      <path
         d="M 8.8571,15.286 H 11 v 0.71429 H 8.8571 Z"
         id="path38"
         inkscape:connector-curvature="0"
         style="fill:#bdc3c7" />
      <path
         d="m 15.286,15.286 h 2.1429 v 0.71429 H 15.286 Z m 2.8571,0 h 0.71429 v 0.71429 H 18.1431 Z m 0.71429,-1.4286 h 0.71429 v 0.71429 h -0.71429 z"
         id="path40"
         inkscape:connector-curvature="0"
         style="fill:#95a5a6" />
    </g>
    <g
       transform="matrix(0.71429,0,0,0.71429,-0.42857,-0.42857)"
       id="g48"
       style="fill-rule:evenodd">
      <path
         d="m 7.5,8.92 -3.501,1.467 c 0,0 0.416,1.902 0.867,3 0.225,0.551 0.5,1.121 0.889,1.617 0.389,0.496 0.965,0.99 1.745,0.99 0.78,0 1.354,-0.494 1.743,-0.99 0.389,-0.496 0.664,-1.066 0.889,-1.617 0.451,-1.102 0.869,-3 0.869,-3 z"
         id="path44"
         inkscape:connector-curvature="0"
         style="fill:#eff0f1" />
      <path
         d="M 5,11 7.5,10 10,11 C 10,11 9.072,15 7.5,15 5.928,15 5,11 5,11"
         id="path46"
         inkscape:connector-curvature="0"
         style="fill:#da4453" />
    </g>
    <path
       d="m 1,20.286 h 20 v 0.71429 H 1 Z"
       id="path50"
       inkscape:connector-curvature="0"
       style="fill:#99a1a7;stroke-width:0.71429002" />
  </g>
</svg>
