<svg xmlns="http://www.w3.org/2000/svg" viewBox="0 0 65.8 65.8"><defs><style>.cls-1{fill:#474747;}.cls-2{fill:none;}.cls-3{fill:#297589;}.cls-4{fill:#2e8ba0;}</style></defs><g id="Layer_2" data-name="Layer 2"><g id="Layer_1-2" data-name="Layer 1"><path class="cls-1" d="M62.53,28.27l-4.8-1.71a4.91,4.91,0,0,1-2.79-6.74l2.19-4.6a4.92,4.92,0,0,0-6.55-6.55L46,10.86a4.91,4.91,0,0,1-6.74-2.79l-1.71-4.8a4.91,4.91,0,0,0-9.26,0l-1.71,4.8a4.91,4.91,0,0,1-6.74,2.79l-4.6-2.19a4.92,4.92,0,0,0-6.55,6.55l2.19,4.6a4.91,4.91,0,0,1-2.79,6.74l-4.8,1.71a4.91,4.91,0,0,0,0,9.26l4.8,1.71A4.91,4.91,0,0,1,10.86,46l-2.19,4.6a4.92,4.92,0,0,0,6.55,6.55l4.6-2.19a4.91,4.91,0,0,1,6.74,2.79l1.71,4.8a4.91,4.91,0,0,0,9.26,0l1.71-4.8A4.91,4.91,0,0,1,46,54.94l4.6,2.19a4.92,4.92,0,0,0,6.55-6.55L54.94,46a4.91,4.91,0,0,1,2.79-6.74l4.8-1.71A4.91,4.91,0,0,0,62.53,28.27Zm-29.63,24A19.39,19.39,0,1,1,52.29,32.9,19.41,19.41,0,0,1,32.9,52.29Z"/><circle class="cls-2" cx="32.9" cy="32.9" r="18.45"/><path class="cls-3" d="M49.33,32.56C47.46,42,41.83,49.33,32.56,49.33S17.82,43.24,17.82,34s9.3.5,12.8-.59C39.25,33.89,51.21,23.14,49.33,32.56Z"/><path class="cls-4" d="M49.67,32.9a16.77,16.77,0,0,1-16,16.75A17,17,0,0,1,16.19,34c-1-11.12,14.3,1.35,21.59,1.15C47,34.9,49.67,23.64,49.67,32.9Z"/></g></g></svg>
