<svg xmlns="http://www.w3.org/2000/svg" viewBox="0 0 65.81 65.81"><defs><style>.cls-1{fill:#dd851b;}.cls-2{fill:#2e8ba0;}.cls-3{fill:#474747;}</style></defs><g id="Layer_2" data-name="Layer 2"><g id="Layer_1-2" data-name="Layer 1"><path class="cls-1" d="M43.45,34l-6,7.19L32.84,28.47,28.21,41.19l-6-7.19-1,5.82H17.84a16.56,16.56,0,0,0,30.13,0H44.42Z"/><path class="cls-2" d="M32.6,16.31A16.92,16.92,0,0,0,17.43,27.16,15.55,15.55,0,0,0,16.84,37h2l1.59-9.5,6.78,8.13,5.59-15.37,5.59,15.37,6.78-8.13L46.79,37H49A16.53,16.53,0,0,0,32.6,16.31Z"/><path class="cls-3" d="M62.54,28.27l-4.81-1.71a4.9,4.9,0,0,1-2.79-6.73l2.19-4.61a4.92,4.92,0,0,0-6.55-6.55L46,10.86a4.92,4.92,0,0,1-6.74-2.79l-1.71-4.8a4.91,4.91,0,0,0-9.26,0l-1.71,4.8a4.9,4.9,0,0,1-6.73,2.79L15.22,8.67a4.92,4.92,0,0,0-6.55,6.55l2.19,4.61a4.9,4.9,0,0,1-2.79,6.73l-4.8,1.71a4.91,4.91,0,0,0,0,9.26l4.8,1.71A4.92,4.92,0,0,1,10.86,46l-2.19,4.6a4.92,4.92,0,0,0,6.55,6.55l4.61-2.19a4.9,4.9,0,0,1,6.73,2.79l1.71,4.81a4.92,4.92,0,0,0,9.26,0l1.71-4.81A4.92,4.92,0,0,1,46,54.94l4.6,2.19a4.91,4.91,0,0,0,6.55-6.55L54.94,46a4.92,4.92,0,0,1,2.79-6.74l4.81-1.71A4.92,4.92,0,0,0,62.54,28.27ZM32.9,52.3A19.4,19.4,0,1,1,52.3,32.9,19.42,19.42,0,0,1,32.9,52.3Z"/></g></g></svg>