<svg xmlns="http://www.w3.org/2000/svg" viewBox="0 0 269.02 65.81"><defs><style>.cls-1{fill:#dd851b;}.cls-2{fill:#2e8ba0;}.cls-3{fill:#e6f0f1;}</style></defs><g id="Layer_2" data-name="Layer 2"><g id="Layer_1-2" data-name="Layer 1"><path class="cls-1" d="M43.45,34l-6,7.19L32.84,28.47,28.21,41.19l-6-7.19-1,5.82H17.84a16.56,16.56,0,0,0,30.13,0H44.42Z"/><path class="cls-2" d="M32.6,16.31A16.92,16.92,0,0,0,17.43,27.16,15.55,15.55,0,0,0,16.84,37h2l1.59-9.5,6.78,8.13,5.59-15.37,5.59,15.37,6.78-8.13L46.79,37H49A16.53,16.53,0,0,0,32.6,16.31Z"/><path class="cls-3" d="M62.54,28.27l-4.81-1.71a4.9,4.9,0,0,1-2.79-6.73l2.19-4.61a4.92,4.92,0,0,0-6.55-6.55L46,10.86a4.92,4.92,0,0,1-6.74-2.79l-1.71-4.8a4.91,4.91,0,0,0-9.26,0l-1.71,4.8a4.9,4.9,0,0,1-6.73,2.79L15.22,8.67a4.92,4.92,0,0,0-6.55,6.55l2.19,4.61a4.9,4.9,0,0,1-2.79,6.73l-4.8,1.71a4.91,4.91,0,0,0,0,9.26l4.8,1.71A4.92,4.92,0,0,1,10.86,46l-2.19,4.6a4.92,4.92,0,0,0,6.55,6.55l4.61-2.19a4.9,4.9,0,0,1,6.73,2.79l1.71,4.81a4.92,4.92,0,0,0,9.26,0l1.71-4.81A4.92,4.92,0,0,1,46,54.94l4.6,2.19a4.91,4.91,0,0,0,6.55-6.55L54.94,46a4.92,4.92,0,0,1,2.79-6.74l4.81-1.71A4.92,4.92,0,0,0,62.54,28.27ZM32.9,52.3A19.4,19.4,0,1,1,52.3,32.9,19.42,19.42,0,0,1,32.9,52.3Z"/><path class="cls-3" d="M101.78,31.57a10.43,10.43,0,0,1,5.81,11.26c-1,6.62-5.52,10.62-14.63,10.62H76.18V12.35H92.67c7.84,0,13.58,4.7,13.35,12.54A8.31,8.31,0,0,1,101.78,31.57Zm-9.11-3.14a3.66,3.66,0,1,0,0-7.31h-6v7.31Zm0,15.91c6.27,0,6.15-8.42,0-8.42h-6v8.42Z"/><path class="cls-3" d="M122.45,40.39h-1.86V53.45H110.08V12.35h16.43c8.48,0,15,3.89,15.27,13.53,0,7.6-3.08,11.9-8.07,13.47l11.2,14.1H132Zm4.24-8.94a4.7,4.7,0,1,0,0-9.4h-6.1v9.4Z"/><path class="cls-3" d="M149.85,40.45c4.12,5,13.17,5.22,13.46.81.12-2.32-3.65-3.66-7-4.12-6.62-1-12.66-5.22-12.66-13.06,0-8.07,7.32-12.31,14.87-12.31a16.86,16.86,0,0,1,14,6.56l-6.79,5.23c-4.29-4.59-11.67-4.42-11.84.34.12,2,2.26,3.14,5.46,3.84,7.31,1.33,14.63,3.88,14.16,14-.35,8-8.71,12.3-16.25,12.3-4.94,0-10.16-2.49-14-7.43Z"/><path class="cls-3" d="M177.82,53.45V12.35h1.46V52h20.55v1.45Z"/><path class="cls-3" d="M203.66,53.45h-1.57l15.21-41.1h2.32l15.21,41.1h-1.57l-5.45-14.68h-18.7Zm14.68-39.71-8.7,23.57h17.64l-8.7-23.57Z"/><path class="cls-3" d="M263.16,32.32c4.52,1.92,5.92,6.5,5.86,10.16-.17,8.48-5.63,11-12.77,11h-15V12.35h15c6,0,10.74,3.48,10.74,10,0,3.48-1.28,6.61-4.13,8.3l-1.8,1ZM256.31,31c5.4,0,9.34-2.67,9.34-8.6,0-5.74-4.12-8.7-9.34-8.7H242.72V31Zm0,21.07c6.56.12,11.26-2.5,11.26-9.64s-4.36-10.1-11.26-10H242.72V52.06Z"/></g></g></svg>