<svg xmlns="http://www.w3.org/2000/svg" viewBox="0 0 332.79 78.51"><defs><style>.cls-1{fill:none;}.cls-2{fill:#474747;}.cls-3{fill:#dd851b;}.cls-4{fill:#1d7d87;}</style></defs><g id="Layer_2" data-name="Layer 2"><g id="Layer_1-2" data-name="Layer 1"><rect class="cls-1" width="332.59" height="78.51"/><path class="cls-2" d="M88.43,44.17c3.48,4.22,11.14,4.41,11.38.69.1-2-3.09-3.09-5.93-3.49-5.6-.88-10.7-4.41-10.7-11,0-6.82,6.18-10.4,12.56-10.4a14.25,14.25,0,0,1,11.87,5.54l-5.74,4.42c-3.63-3.88-9.86-3.73-10,.29.1,1.67,1.92,2.65,4.62,3.24,6.18,1.12,12.36,3.28,12,11.82-.3,6.72-7.36,10.4-13.74,10.4a15.22,15.22,0,0,1-11.82-6.28Z"/><path class="cls-2" d="M120.71,55.16h-8.78V20.43h8.78Z"/><path class="cls-2" d="M129.78,44.17c3.48,4.22,11.13,4.41,11.38.69.1-2-3.09-3.09-5.94-3.49-5.59-.88-10.69-4.41-10.69-11,0-6.82,6.18-10.4,12.56-10.4A14.25,14.25,0,0,1,149,25.48l-5.74,4.42c-3.63-3.88-9.86-3.73-10,.29.1,1.67,1.91,2.65,4.61,3.24,6.18,1.12,12.36,3.28,12,11.82-.29,6.72-7.36,10.4-13.73,10.4a15.2,15.2,0,0,1-11.82-6.28Z"/><path class="cls-2" d="M169.31,28.72V55.16h-8.88V28.72h-9.22V20.38h27.32v8.34Z"/><path class="cls-2" d="M190.55,34.06h14.08v7.61H190.55v5.2h15.3v8.29H181.67V20.43h24.18v8.24h-15.3Z"/><path class="cls-2" d="M220.67,44.12H219.1v11h-8.88V20.43H224.1c7.16,0,12.71,3.28,12.9,11.43,0,6.42-2.6,10-6.82,11.38l9.47,11.92H228.71Zm3.58-7.55a4,4,0,1,0,0-7.95H219.1v8Z"/><path class="cls-2" d="M244.65,55.16h-1.23V20.43h1.23V37.2h21.93V20.43h1.22V55.16h-1.22V38.43H244.65Z"/><path class="cls-2" d="M277.61,45.64c0,5.89,5.45,8.83,10.94,8.83s11-2.94,11-8.83V20.43h1.22V45.64c0,6.62-6.13,10-12.21,10s-12.17-3.39-12.17-10V20.43h1.23Z"/><path class="cls-2" d="M327.84,37.3c3.82,1.62,5,5.5,5,8.59-.15,7.16-4.76,9.27-10.79,9.27H309.34V20.43h12.71c5.1,0,9.07,2.94,9.07,8.44,0,2.94-1.08,5.59-3.48,7l-1.52.83Zm-5.79-1.13c4.56,0,7.9-2.25,7.9-7.26,0-4.85-3.49-7.35-7.9-7.35H310.57V36.17Zm0,17.81c5.54.1,9.51-2.11,9.51-8.14s-3.67-8.54-9.51-8.49H310.57V54Z"/><path class="cls-3" d="M51.81,40.38l-6.12,7.33L41,34.73l-4.72,13-6.11-7.33-1,5.94H25.66a16.91,16.91,0,0,0,30.76,0H52.8Z"/><path class="cls-4" d="M40.73,22.31A17.28,17.28,0,0,0,25.25,33.39a15.83,15.83,0,0,0-.6,10.07h2.08l1.62-9.69,6.92,8.3L41,26.38l5.71,15.69,6.92-8.3,1.62,9.69h2.21A16.64,16.64,0,0,0,58,39.25,17,17,0,0,0,40.73,22.31Z"/><path class="cls-2" d="M71.29,34.53l-4.9-1.74a5,5,0,0,1-2.85-6.88l2.23-4.7a5,5,0,0,0-6.68-6.69l-4.7,2.24a5,5,0,0,1-6.88-2.85L45.77,9a5,5,0,0,0-9.45,0l-1.75,4.9a5,5,0,0,1-6.88,2.85L23,14.52a5,5,0,0,0-6.68,6.69l2.24,4.7a5,5,0,0,1-2.85,6.88l-4.91,1.74a5,5,0,0,0,0,9.45l4.91,1.74a5,5,0,0,1,2.85,6.88l-2.24,4.7A5,5,0,0,0,23,64l4.7-2.24a5,5,0,0,1,6.88,2.85l1.75,4.9a5,5,0,0,0,9.45,0l1.74-4.9a5,5,0,0,1,6.88-2.85L59.09,64a5,5,0,0,0,6.68-6.69l-2.23-4.7a5,5,0,0,1,2.85-6.88L71.29,44A5,5,0,0,0,71.29,34.53ZM41,59.05a19.8,19.8,0,1,1,19.8-19.8A19.82,19.82,0,0,1,41,59.05Z"/><path class="cls-1" d="M41,19.46a19.8,19.8,0,1,0,19.8,19.79A19.82,19.82,0,0,0,41,19.46ZM41,56.2a17,17,0,0,1-15.38-9.88h3.49l1-5.94,6.11,7.33,4.72-13,4.72,13,6.12-7.33,1,5.94h3.62A17,17,0,0,1,41,56.2ZM57.43,43.46H55.22L53.6,33.77l-6.92,8.3L41,26.38l-5.7,15.69-6.92-8.3-1.62,9.69H24.65a16.64,16.64,0,0,1-.55-4.21,16.94,16.94,0,0,1,33.88,0A16.64,16.64,0,0,1,57.43,43.46Z"/></g></g></svg>